<mxfile host="app.diagrams.net" agent="Mozilla/5.0 (Windows NT 10.0; Win64; x64) AppleWebKit/537.36 (KHTML, like Gecko) Chrome/140.0.0.0 Safari/537.36" version="28.2.3">
  <diagram name="Página-1" id="2Z8iO8cGPfJdXTVoB8Q-">
    <mxGraphModel dx="3789" dy="1806" grid="1" gridSize="10" guides="1" tooltips="1" connect="1" arrows="1" fold="1" page="1" pageScale="1" pageWidth="1169" pageHeight="827" math="0" shadow="0">
      <root>
        <mxCell id="0" />
        <mxCell id="1" parent="0" />
        <mxCell id="37Ur7eNhfYniqS4p7nPD-1" value="AWS Cloud" style="points=[[0,0],[0.25,0],[0.5,0],[0.75,0],[1,0],[1,0.25],[1,0.5],[1,0.75],[1,1],[0.75,1],[0.5,1],[0.25,1],[0,1],[0,0.75],[0,0.5],[0,0.25]];outlineConnect=0;gradientColor=none;html=1;whiteSpace=wrap;fontSize=12;fontStyle=0;container=1;pointerEvents=0;collapsible=0;recursiveResize=0;shape=mxgraph.aws4.group;grIcon=mxgraph.aws4.group_aws_cloud_alt;strokeColor=#232F3E;fillColor=none;verticalAlign=top;align=left;spacingLeft=30;fontColor=#232F3E;dashed=0;" vertex="1" parent="1">
          <mxGeometry x="-575" y="-140" width="2320" height="1600" as="geometry" />
        </mxCell>
        <mxCell id="37Ur7eNhfYniqS4p7nPD-2" value="sa-east-1 (São Paulo)" style="points=[[0,0],[0.25,0],[0.5,0],[0.75,0],[1,0],[1,0.25],[1,0.5],[1,0.75],[1,1],[0.75,1],[0.5,1],[0.25,1],[0,1],[0,0.75],[0,0.5],[0,0.25]];outlineConnect=0;gradientColor=none;html=1;whiteSpace=wrap;fontSize=12;fontStyle=0;container=1;pointerEvents=0;collapsible=0;recursiveResize=0;shape=mxgraph.aws4.group;grIcon=mxgraph.aws4.group_region;strokeColor=#00A4A6;fillColor=none;verticalAlign=top;align=left;spacingLeft=30;fontColor=#147EBA;dashed=1;" vertex="1" parent="37Ur7eNhfYniqS4p7nPD-1">
          <mxGeometry x="20" y="229" width="2250" height="1341" as="geometry" />
        </mxCell>
        <mxCell id="37Ur7eNhfYniqS4p7nPD-4" value="VPC" style="sketch=0;outlineConnect=0;html=1;whiteSpace=wrap;fontSize=12;fontStyle=0;shape=mxgraph.aws4.group;grIcon=mxgraph.aws4.group_vpc;verticalAlign=top;align=left;spacingLeft=30;dashed=0;" vertex="1" parent="37Ur7eNhfYniqS4p7nPD-2">
          <mxGeometry x="20" y="40" width="2190" height="1270" as="geometry" />
        </mxCell>
        <mxCell id="37Ur7eNhfYniqS4p7nPD-31" value="" style="rounded=0;whiteSpace=wrap;html=1;" vertex="1" parent="37Ur7eNhfYniqS4p7nPD-2">
          <mxGeometry x="1035" y="65.25" width="301" height="88" as="geometry" />
        </mxCell>
        <mxCell id="37Ur7eNhfYniqS4p7nPD-151" value="" style="group;fillColor=#dae8fc;strokeColor=#6c8ebf;" vertex="1" connectable="0" parent="37Ur7eNhfYniqS4p7nPD-2">
          <mxGeometry x="835" y="721" width="1295" height="539" as="geometry" />
        </mxCell>
        <mxCell id="37Ur7eNhfYniqS4p7nPD-149" value="" style="rounded=0;whiteSpace=wrap;html=1;" vertex="1" parent="37Ur7eNhfYniqS4p7nPD-151">
          <mxGeometry width="1295" height="539" as="geometry" />
        </mxCell>
        <mxCell id="37Ur7eNhfYniqS4p7nPD-150" value="TO BE" style="text;html=1;align=center;verticalAlign=middle;whiteSpace=wrap;rounded=0;fillColor=#ffe6cc;strokeColor=#d79b00;" vertex="1" parent="37Ur7eNhfYniqS4p7nPD-151">
          <mxGeometry width="105" height="43.14" as="geometry" />
        </mxCell>
        <mxCell id="37Ur7eNhfYniqS4p7nPD-174" style="edgeStyle=orthogonalEdgeStyle;rounded=0;orthogonalLoop=1;jettySize=auto;html=1;dashed=1;" edge="1" parent="37Ur7eNhfYniqS4p7nPD-151" source="37Ur7eNhfYniqS4p7nPD-152" target="37Ur7eNhfYniqS4p7nPD-173">
          <mxGeometry relative="1" as="geometry" />
        </mxCell>
        <mxCell id="37Ur7eNhfYniqS4p7nPD-152" value="hub" style="sketch=0;points=[[0,0,0],[0.25,0,0],[0.5,0,0],[0.75,0,0],[1,0,0],[0,1,0],[0.25,1,0],[0.5,1,0],[0.75,1,0],[1,1,0],[0,0.25,0],[0,0.5,0],[0,0.75,0],[1,0.25,0],[1,0.5,0],[1,0.75,0]];outlineConnect=0;fontColor=#232F3E;fillColor=#ED7100;strokeColor=#ffffff;dashed=0;verticalLabelPosition=bottom;verticalAlign=top;align=center;html=1;fontSize=12;fontStyle=0;aspect=fixed;shape=mxgraph.aws4.resourceIcon;resIcon=mxgraph.aws4.ecs;" vertex="1" parent="37Ur7eNhfYniqS4p7nPD-151">
          <mxGeometry x="1150" y="43.139999999999986" width="78" height="78" as="geometry" />
        </mxCell>
        <mxCell id="37Ur7eNhfYniqS4p7nPD-175" style="edgeStyle=orthogonalEdgeStyle;rounded=0;orthogonalLoop=1;jettySize=auto;html=1;dashed=1;" edge="1" parent="37Ur7eNhfYniqS4p7nPD-151" source="37Ur7eNhfYniqS4p7nPD-153" target="37Ur7eNhfYniqS4p7nPD-173">
          <mxGeometry relative="1" as="geometry" />
        </mxCell>
        <mxCell id="37Ur7eNhfYniqS4p7nPD-153" value="registro" style="sketch=0;points=[[0,0,0],[0.25,0,0],[0.5,0,0],[0.75,0,0],[1,0,0],[0,1,0],[0.25,1,0],[0.5,1,0],[0.75,1,0],[1,1,0],[0,0.25,0],[0,0.5,0],[0,0.75,0],[1,0.25,0],[1,0.5,0],[1,0.75,0]];outlineConnect=0;fontColor=#232F3E;fillColor=#ED7100;strokeColor=#ffffff;dashed=0;verticalLabelPosition=bottom;verticalAlign=top;align=center;html=1;fontSize=12;fontStyle=0;aspect=fixed;shape=mxgraph.aws4.resourceIcon;resIcon=mxgraph.aws4.ecs;" vertex="1" parent="37Ur7eNhfYniqS4p7nPD-151">
          <mxGeometry x="1150" y="200" width="78" height="78" as="geometry" />
        </mxCell>
        <mxCell id="37Ur7eNhfYniqS4p7nPD-156" value="gestao de carteira" style="sketch=0;points=[[0,0,0],[0.25,0,0],[0.5,0,0],[0.75,0,0],[1,0,0],[0,1,0],[0.25,1,0],[0.5,1,0],[0.75,1,0],[1,1,0],[0,0.25,0],[0,0.5,0],[0,0.75,0],[1,0.25,0],[1,0.5,0],[1,0.75,0]];outlineConnect=0;fontColor=#232F3E;fillColor=#ED7100;strokeColor=#ffffff;dashed=0;verticalLabelPosition=bottom;verticalAlign=top;align=center;html=1;fontSize=12;fontStyle=0;aspect=fixed;shape=mxgraph.aws4.resourceIcon;resIcon=mxgraph.aws4.ecs;" vertex="1" parent="37Ur7eNhfYniqS4p7nPD-151">
          <mxGeometry x="1150" y="353" width="78" height="78" as="geometry" />
        </mxCell>
        <mxCell id="37Ur7eNhfYniqS4p7nPD-173" value="agreggator_sqs" style="sketch=0;points=[[0,0,0],[0.25,0,0],[0.5,0,0],[0.75,0,0],[1,0,0],[0,1,0],[0.25,1,0],[0.5,1,0],[0.75,1,0],[1,1,0],[0,0.25,0],[0,0.5,0],[0,0.75,0],[1,0.25,0],[1,0.5,0],[1,0.75,0]];outlineConnect=0;fontColor=#232F3E;fillColor=#E7157B;strokeColor=#ffffff;dashed=0;verticalLabelPosition=bottom;verticalAlign=top;align=center;html=1;fontSize=12;fontStyle=0;aspect=fixed;shape=mxgraph.aws4.resourceIcon;resIcon=mxgraph.aws4.sqs;" vertex="1" parent="37Ur7eNhfYniqS4p7nPD-151">
          <mxGeometry x="850" y="200" width="78" height="78" as="geometry" />
        </mxCell>
        <mxCell id="37Ur7eNhfYniqS4p7nPD-176" style="edgeStyle=orthogonalEdgeStyle;rounded=0;orthogonalLoop=1;jettySize=auto;html=1;entryX=0.5;entryY=1;entryDx=0;entryDy=0;entryPerimeter=0;dashed=1;" edge="1" parent="37Ur7eNhfYniqS4p7nPD-151" source="37Ur7eNhfYniqS4p7nPD-156" target="37Ur7eNhfYniqS4p7nPD-173">
          <mxGeometry relative="1" as="geometry" />
        </mxCell>
        <mxCell id="37Ur7eNhfYniqS4p7nPD-179" style="edgeStyle=orthogonalEdgeStyle;rounded=0;orthogonalLoop=1;jettySize=auto;html=1;dashed=1;" edge="1" parent="37Ur7eNhfYniqS4p7nPD-151" source="37Ur7eNhfYniqS4p7nPD-177" target="37Ur7eNhfYniqS4p7nPD-70">
          <mxGeometry relative="1" as="geometry" />
        </mxCell>
        <mxCell id="37Ur7eNhfYniqS4p7nPD-184" style="edgeStyle=orthogonalEdgeStyle;rounded=0;orthogonalLoop=1;jettySize=auto;html=1;dashed=1;" edge="1" parent="37Ur7eNhfYniqS4p7nPD-151" source="37Ur7eNhfYniqS4p7nPD-177" target="37Ur7eNhfYniqS4p7nPD-183">
          <mxGeometry relative="1" as="geometry" />
        </mxCell>
        <mxCell id="37Ur7eNhfYniqS4p7nPD-177" value="agregador" style="sketch=0;points=[[0,0,0],[0.25,0,0],[0.5,0,0],[0.75,0,0],[1,0,0],[0,1,0],[0.25,1,0],[0.5,1,0],[0.75,1,0],[1,1,0],[0,0.25,0],[0,0.5,0],[0,0.75,0],[1,0.25,0],[1,0.5,0],[1,0.75,0]];outlineConnect=0;fontColor=#232F3E;fillColor=#ED7100;strokeColor=#ffffff;dashed=0;verticalLabelPosition=bottom;verticalAlign=top;align=center;html=1;fontSize=12;fontStyle=0;aspect=fixed;shape=mxgraph.aws4.resourceIcon;resIcon=mxgraph.aws4.ecs;" vertex="1" parent="37Ur7eNhfYniqS4p7nPD-151">
          <mxGeometry x="600" y="200" width="78" height="78" as="geometry" />
        </mxCell>
        <mxCell id="37Ur7eNhfYniqS4p7nPD-178" style="edgeStyle=orthogonalEdgeStyle;rounded=0;orthogonalLoop=1;jettySize=auto;html=1;entryX=1;entryY=0.5;entryDx=0;entryDy=0;entryPerimeter=0;dashed=1;" edge="1" parent="37Ur7eNhfYniqS4p7nPD-151" source="37Ur7eNhfYniqS4p7nPD-173" target="37Ur7eNhfYniqS4p7nPD-177">
          <mxGeometry relative="1" as="geometry" />
        </mxCell>
        <mxCell id="37Ur7eNhfYniqS4p7nPD-70" value="cluster_opensearch" style="sketch=0;points=[[0,0,0],[0.25,0,0],[0.5,0,0],[0.75,0,0],[1,0,0],[0,1,0],[0.25,1,0],[0.5,1,0],[0.75,1,0],[1,1,0],[0,0.25,0],[0,0.5,0],[0,0.75,0],[1,0.25,0],[1,0.5,0],[1,0.75,0]];outlineConnect=0;fontColor=#232F3E;fillColor=#8C4FFF;strokeColor=#ffffff;dashed=0;verticalLabelPosition=bottom;verticalAlign=top;align=center;html=1;fontSize=12;fontStyle=0;aspect=fixed;shape=mxgraph.aws4.resourceIcon;resIcon=mxgraph.aws4.elasticsearch_service;" vertex="1" parent="37Ur7eNhfYniqS4p7nPD-151">
          <mxGeometry x="370" y="200" width="78" height="78" as="geometry" />
        </mxCell>
        <mxCell id="37Ur7eNhfYniqS4p7nPD-181" style="edgeStyle=orthogonalEdgeStyle;rounded=0;orthogonalLoop=1;jettySize=auto;html=1;dashed=1;" edge="1" parent="37Ur7eNhfYniqS4p7nPD-151" source="37Ur7eNhfYniqS4p7nPD-68" target="37Ur7eNhfYniqS4p7nPD-70">
          <mxGeometry relative="1" as="geometry" />
        </mxCell>
        <mxCell id="37Ur7eNhfYniqS4p7nPD-68" value="orquestrador_map" style="sketch=0;points=[[0,0,0],[0.25,0,0],[0.5,0,0],[0.75,0,0],[1,0,0],[0,1,0],[0.25,1,0],[0.5,1,0],[0.75,1,0],[1,1,0],[0,0.25,0],[0,0.5,0],[0,0.75,0],[1,0.25,0],[1,0.5,0],[1,0.75,0]];outlineConnect=0;fontColor=#232F3E;fillColor=#ED7100;strokeColor=#ffffff;dashed=0;verticalLabelPosition=bottom;verticalAlign=top;align=center;html=1;fontSize=12;fontStyle=0;aspect=fixed;shape=mxgraph.aws4.resourceIcon;resIcon=mxgraph.aws4.ecs;" vertex="1" parent="37Ur7eNhfYniqS4p7nPD-151">
          <mxGeometry x="80" y="200" width="78" height="78" as="geometry" />
        </mxCell>
        <mxCell id="37Ur7eNhfYniqS4p7nPD-182" value="firehose democratizer" style="sketch=0;points=[[0,0,0],[0.25,0,0],[0.5,0,0],[0.75,0,0],[1,0,0],[0,1,0],[0.25,1,0],[0.5,1,0],[0.75,1,0],[1,1,0],[0,0.25,0],[0,0.5,0],[0,0.75,0],[1,0.25,0],[1,0.5,0],[1,0.75,0]];outlineConnect=0;fontColor=#232F3E;fillColor=#8C4FFF;strokeColor=#ffffff;dashed=0;verticalLabelPosition=bottom;verticalAlign=top;align=center;html=1;fontSize=12;fontStyle=0;aspect=fixed;shape=mxgraph.aws4.resourceIcon;resIcon=mxgraph.aws4.kinesis_data_firehose;" vertex="1" parent="37Ur7eNhfYniqS4p7nPD-151">
          <mxGeometry x="445" y="48.14" width="68" height="68" as="geometry" />
        </mxCell>
        <mxCell id="37Ur7eNhfYniqS4p7nPD-185" style="edgeStyle=orthogonalEdgeStyle;rounded=0;orthogonalLoop=1;jettySize=auto;html=1;dashed=1;" edge="1" parent="37Ur7eNhfYniqS4p7nPD-151" source="37Ur7eNhfYniqS4p7nPD-183" target="37Ur7eNhfYniqS4p7nPD-182">
          <mxGeometry relative="1" as="geometry" />
        </mxCell>
        <mxCell id="37Ur7eNhfYniqS4p7nPD-183" value="LIB DATAMESH" style="rounded=0;whiteSpace=wrap;html=1;fillColor=#e1d5e7;strokeColor=#9673a6;" vertex="1" parent="37Ur7eNhfYniqS4p7nPD-151">
          <mxGeometry x="670" y="57.14" width="80" height="50" as="geometry" />
        </mxCell>
        <mxCell id="37Ur7eNhfYniqS4p7nPD-200" value="&lt;b&gt;11&lt;/b&gt;" style="rounded=0;whiteSpace=wrap;html=1;fillColor=#dae8fc;strokeColor=#6c8ebf;" vertex="1" parent="37Ur7eNhfYniqS4p7nPD-151">
          <mxGeometry x="305" y="377.5" width="50" height="29" as="geometry" />
        </mxCell>
        <mxCell id="37Ur7eNhfYniqS4p7nPD-16" style="edgeStyle=orthogonalEdgeStyle;rounded=0;orthogonalLoop=1;jettySize=auto;html=1;dashed=1;" edge="1" parent="37Ur7eNhfYniqS4p7nPD-2" source="37Ur7eNhfYniqS4p7nPD-13" target="37Ur7eNhfYniqS4p7nPD-15">
          <mxGeometry relative="1" as="geometry" />
        </mxCell>
        <mxCell id="37Ur7eNhfYniqS4p7nPD-23" style="edgeStyle=orthogonalEdgeStyle;rounded=0;orthogonalLoop=1;jettySize=auto;html=1;dashed=1;" edge="1" parent="37Ur7eNhfYniqS4p7nPD-2" source="37Ur7eNhfYniqS4p7nPD-13" target="37Ur7eNhfYniqS4p7nPD-22">
          <mxGeometry relative="1" as="geometry" />
        </mxCell>
        <mxCell id="37Ur7eNhfYniqS4p7nPD-180" style="edgeStyle=orthogonalEdgeStyle;rounded=0;orthogonalLoop=1;jettySize=auto;html=1;dashed=1;" edge="1" parent="37Ur7eNhfYniqS4p7nPD-2" source="37Ur7eNhfYniqS4p7nPD-13" target="37Ur7eNhfYniqS4p7nPD-68">
          <mxGeometry relative="1" as="geometry">
            <Array as="points">
              <mxPoint x="955" y="164" />
              <mxPoint x="955" y="900" />
            </Array>
          </mxGeometry>
        </mxCell>
        <mxCell id="37Ur7eNhfYniqS4p7nPD-13" value="nlb-coreposvenda" style="sketch=0;outlineConnect=0;fontColor=#232F3E;gradientColor=none;fillColor=#8C4FFF;strokeColor=none;dashed=0;verticalLabelPosition=bottom;verticalAlign=top;align=center;html=1;fontSize=12;fontStyle=0;aspect=fixed;pointerEvents=1;shape=mxgraph.aws4.network_load_balancer;" vertex="1" parent="37Ur7eNhfYniqS4p7nPD-2">
          <mxGeometry x="805.5" y="131" width="67" height="67" as="geometry" />
        </mxCell>
        <mxCell id="37Ur7eNhfYniqS4p7nPD-40" style="edgeStyle=orthogonalEdgeStyle;rounded=0;orthogonalLoop=1;jettySize=auto;html=1;entryX=1;entryY=0.75;entryDx=0;entryDy=0;curved=1;dashed=1;" edge="1" parent="37Ur7eNhfYniqS4p7nPD-2" source="37Ur7eNhfYniqS4p7nPD-15" target="37Ur7eNhfYniqS4p7nPD-35">
          <mxGeometry relative="1" as="geometry">
            <Array as="points">
              <mxPoint x="607" y="261" />
              <mxPoint x="607" y="131" />
            </Array>
          </mxGeometry>
        </mxCell>
        <mxCell id="37Ur7eNhfYniqS4p7nPD-42" style="edgeStyle=orthogonalEdgeStyle;rounded=0;orthogonalLoop=1;jettySize=auto;html=1;dashed=1;" edge="1" parent="37Ur7eNhfYniqS4p7nPD-2" source="37Ur7eNhfYniqS4p7nPD-15" target="37Ur7eNhfYniqS4p7nPD-41">
          <mxGeometry relative="1" as="geometry" />
        </mxCell>
        <mxCell id="37Ur7eNhfYniqS4p7nPD-15" value="apiconsultaoperacoesposvenda" style="sketch=0;points=[[0,0,0],[0.25,0,0],[0.5,0,0],[0.75,0,0],[1,0,0],[0,1,0],[0.25,1,0],[0.5,1,0],[0.75,1,0],[1,1,0],[0,0.25,0],[0,0.5,0],[0,0.75,0],[1,0.25,0],[1,0.5,0],[1,0.75,0]];outlineConnect=0;fontColor=#232F3E;fillColor=#ED7100;strokeColor=#ffffff;dashed=0;verticalLabelPosition=bottom;verticalAlign=top;align=center;html=1;fontSize=12;fontStyle=0;aspect=fixed;shape=mxgraph.aws4.resourceIcon;resIcon=mxgraph.aws4.ecs;" vertex="1" parent="37Ur7eNhfYniqS4p7nPD-2">
          <mxGeometry x="650" y="261" width="78" height="78" as="geometry" />
        </mxCell>
        <mxCell id="37Ur7eNhfYniqS4p7nPD-25" style="edgeStyle=orthogonalEdgeStyle;rounded=0;orthogonalLoop=1;jettySize=auto;html=1;dashed=1;" edge="1" parent="37Ur7eNhfYniqS4p7nPD-2" source="37Ur7eNhfYniqS4p7nPD-22" target="37Ur7eNhfYniqS4p7nPD-24">
          <mxGeometry relative="1" as="geometry" />
        </mxCell>
        <mxCell id="37Ur7eNhfYniqS4p7nPD-22" value="apiconsultaoperacoes" style="sketch=0;points=[[0,0,0],[0.25,0,0],[0.5,0,0],[0.75,0,0],[1,0,0],[0,1,0],[0.25,1,0],[0.5,1,0],[0.75,1,0],[1,1,0],[0,0.25,0],[0,0.5,0],[0,0.75,0],[1,0.25,0],[1,0.5,0],[1,0.75,0]];outlineConnect=0;fontColor=#232F3E;fillColor=#ED7100;strokeColor=#ffffff;dashed=0;verticalLabelPosition=bottom;verticalAlign=top;align=center;html=1;fontSize=12;fontStyle=0;aspect=fixed;shape=mxgraph.aws4.resourceIcon;resIcon=mxgraph.aws4.ecs;" vertex="1" parent="37Ur7eNhfYniqS4p7nPD-2">
          <mxGeometry x="980" y="261" width="78" height="78" as="geometry" />
        </mxCell>
        <mxCell id="37Ur7eNhfYniqS4p7nPD-24" value="tbsg2" style="sketch=0;points=[[0,0,0],[0.25,0,0],[0.5,0,0],[0.75,0,0],[1,0,0],[0,1,0],[0.25,1,0],[0.5,1,0],[0.75,1,0],[1,1,0],[0,0.25,0],[0,0.5,0],[0,0.75,0],[1,0.25,0],[1,0.5,0],[1,0.75,0]];outlineConnect=0;fontColor=#232F3E;fillColor=#C925D1;strokeColor=#ffffff;dashed=0;verticalLabelPosition=bottom;verticalAlign=top;align=center;html=1;fontSize=12;fontStyle=0;aspect=fixed;shape=mxgraph.aws4.resourceIcon;resIcon=mxgraph.aws4.dynamodb;" vertex="1" parent="37Ur7eNhfYniqS4p7nPD-2">
          <mxGeometry x="1275" y="261" width="78" height="78" as="geometry" />
        </mxCell>
        <mxCell id="37Ur7eNhfYniqS4p7nPD-26" value="EQ3" style="sketch=0;points=[[0,0,0],[0.25,0,0],[0.5,0,0],[0.75,0,0],[1,0,0],[0,1,0],[0.25,1,0],[0.5,1,0],[0.75,1,0],[1,1,0],[0,0.25,0],[0,0.5,0],[0,0.75,0],[1,0.25,0],[1,0.5,0],[1,0.75,0]];outlineConnect=0;fontColor=#232F3E;fillColor=#8C4FFF;strokeColor=#ffffff;dashed=1;verticalLabelPosition=bottom;verticalAlign=top;align=center;html=1;fontSize=12;fontStyle=0;aspect=fixed;shape=mxgraph.aws4.resourceIcon;resIcon=mxgraph.aws4.api_gateway;" vertex="1" parent="37Ur7eNhfYniqS4p7nPD-2">
          <mxGeometry x="1062" y="79.75" width="40" height="40" as="geometry" />
        </mxCell>
        <mxCell id="37Ur7eNhfYniqS4p7nPD-30" value="libsaldodevedor" style="sketch=0;pointerEvents=1;shadow=0;dashed=0;html=1;strokeColor=none;fillColor=#505050;labelPosition=center;verticalLabelPosition=bottom;verticalAlign=top;outlineConnect=0;align=center;shape=mxgraph.office.concepts.calculator;" vertex="1" parent="37Ur7eNhfYniqS4p7nPD-2">
          <mxGeometry x="1160" y="79.75" width="32" height="46" as="geometry" />
        </mxCell>
        <mxCell id="37Ur7eNhfYniqS4p7nPD-33" value="libiofatraso" style="sketch=0;pointerEvents=1;shadow=0;dashed=0;html=1;strokeColor=none;fillColor=#505050;labelPosition=center;verticalLabelPosition=bottom;verticalAlign=top;outlineConnect=0;align=center;shape=mxgraph.office.concepts.calculator;" vertex="1" parent="37Ur7eNhfYniqS4p7nPD-2">
          <mxGeometry x="1250" y="79.75" width="32" height="46" as="geometry" />
        </mxCell>
        <mxCell id="37Ur7eNhfYniqS4p7nPD-35" value="" style="rounded=0;whiteSpace=wrap;html=1;" vertex="1" parent="37Ur7eNhfYniqS4p7nPD-2">
          <mxGeometry x="375" y="65.25" width="190" height="88" as="geometry" />
        </mxCell>
        <mxCell id="37Ur7eNhfYniqS4p7nPD-36" value="EQ3" style="sketch=0;points=[[0,0,0],[0.25,0,0],[0.5,0,0],[0.75,0,0],[1,0,0],[0,1,0],[0.25,1,0],[0.5,1,0],[0.75,1,0],[1,1,0],[0,0.25,0],[0,0.5,0],[0,0.75,0],[1,0.25,0],[1,0.5,0],[1,0.75,0]];outlineConnect=0;fontColor=#232F3E;fillColor=#8C4FFF;strokeColor=#ffffff;dashed=1;verticalLabelPosition=bottom;verticalAlign=top;align=center;html=1;fontSize=12;fontStyle=0;aspect=fixed;shape=mxgraph.aws4.resourceIcon;resIcon=mxgraph.aws4.api_gateway;" vertex="1" parent="37Ur7eNhfYniqS4p7nPD-2">
          <mxGeometry x="487.25" y="87" width="35.5" height="35.5" as="geometry" />
        </mxCell>
        <mxCell id="37Ur7eNhfYniqS4p7nPD-39" value="CC" style="sketch=0;points=[[0,0,0],[0.25,0,0],[0.5,0,0],[0.75,0,0],[1,0,0],[0,1,0],[0.25,1,0],[0.5,1,0],[0.75,1,0],[1,1,0],[0,0.25,0],[0,0.5,0],[0,0.75,0],[1,0.25,0],[1,0.5,0],[1,0.75,0]];outlineConnect=0;fontColor=#232F3E;fillColor=#8C4FFF;strokeColor=#ffffff;dashed=1;verticalLabelPosition=bottom;verticalAlign=top;align=center;html=1;fontSize=12;fontStyle=0;aspect=fixed;shape=mxgraph.aws4.resourceIcon;resIcon=mxgraph.aws4.api_gateway;" vertex="1" parent="37Ur7eNhfYniqS4p7nPD-2">
          <mxGeometry x="417.25" y="87" width="35.5" height="35.5" as="geometry" />
        </mxCell>
        <mxCell id="37Ur7eNhfYniqS4p7nPD-41" value="alb-coreposvenda" style="sketch=0;outlineConnect=0;fontColor=#232F3E;gradientColor=none;fillColor=#8C4FFF;strokeColor=none;dashed=0;verticalLabelPosition=bottom;verticalAlign=top;align=center;html=1;fontSize=12;fontStyle=0;aspect=fixed;pointerEvents=1;shape=mxgraph.aws4.application_load_balancer;" vertex="1" parent="37Ur7eNhfYniqS4p7nPD-2">
          <mxGeometry x="650" y="441" width="78" height="78" as="geometry" />
        </mxCell>
        <mxCell id="37Ur7eNhfYniqS4p7nPD-43" value="" style="rounded=0;whiteSpace=wrap;html=1;fillColor=#ffe6cc;strokeColor=#d79b00;" vertex="1" parent="37Ur7eNhfYniqS4p7nPD-2">
          <mxGeometry x="85" y="641" width="635" height="279" as="geometry" />
        </mxCell>
        <mxCell id="37Ur7eNhfYniqS4p7nPD-44" value="operacao" style="sketch=0;points=[[0,0,0],[0.25,0,0],[0.5,0,0],[0.75,0,0],[1,0,0],[0,1,0],[0.25,1,0],[0.5,1,0],[0.75,1,0],[1,1,0],[0,0.25,0],[0,0.5,0],[0,0.75,0],[1,0.25,0],[1,0.5,0],[1,0.75,0]];outlineConnect=0;fontColor=#232F3E;fillColor=#ED7100;strokeColor=#ffffff;dashed=0;verticalLabelPosition=bottom;verticalAlign=top;align=center;html=1;fontSize=12;fontStyle=0;aspect=fixed;shape=mxgraph.aws4.resourceIcon;resIcon=mxgraph.aws4.ecs;" vertex="1" parent="37Ur7eNhfYniqS4p7nPD-2">
          <mxGeometry x="105" y="671" width="78" height="78" as="geometry" />
        </mxCell>
        <mxCell id="37Ur7eNhfYniqS4p7nPD-45" value="originacao" style="sketch=0;points=[[0,0,0],[0.25,0,0],[0.5,0,0],[0.75,0,0],[1,0,0],[0,1,0],[0.25,1,0],[0.5,1,0],[0.75,1,0],[1,1,0],[0,0.25,0],[0,0.5,0],[0,0.75,0],[1,0.25,0],[1,0.5,0],[1,0.75,0]];outlineConnect=0;fontColor=#232F3E;fillColor=#ED7100;strokeColor=#ffffff;dashed=0;verticalLabelPosition=bottom;verticalAlign=top;align=center;html=1;fontSize=12;fontStyle=0;aspect=fixed;shape=mxgraph.aws4.resourceIcon;resIcon=mxgraph.aws4.ecs;" vertex="1" parent="37Ur7eNhfYniqS4p7nPD-2">
          <mxGeometry x="105" y="791" width="78" height="78" as="geometry" />
        </mxCell>
        <mxCell id="37Ur7eNhfYniqS4p7nPD-62" style="edgeStyle=orthogonalEdgeStyle;rounded=0;orthogonalLoop=1;jettySize=auto;html=1;entryX=0.5;entryY=1;entryDx=0;entryDy=0;curved=1;dashed=1;" edge="1" parent="37Ur7eNhfYniqS4p7nPD-2" source="37Ur7eNhfYniqS4p7nPD-46" target="37Ur7eNhfYniqS4p7nPD-56">
          <mxGeometry relative="1" as="geometry">
            <Array as="points">
              <mxPoint x="254" y="651" />
              <mxPoint x="144" y="651" />
            </Array>
          </mxGeometry>
        </mxCell>
        <mxCell id="37Ur7eNhfYniqS4p7nPD-46" value="saldo" style="sketch=0;points=[[0,0,0],[0.25,0,0],[0.5,0,0],[0.75,0,0],[1,0,0],[0,1,0],[0.25,1,0],[0.5,1,0],[0.75,1,0],[1,1,0],[0,0.25,0],[0,0.5,0],[0,0.75,0],[1,0.25,0],[1,0.5,0],[1,0.75,0]];outlineConnect=0;fontColor=#232F3E;fillColor=#ED7100;strokeColor=#ffffff;dashed=0;verticalLabelPosition=bottom;verticalAlign=top;align=center;html=1;fontSize=12;fontStyle=0;aspect=fixed;shape=mxgraph.aws4.resourceIcon;resIcon=mxgraph.aws4.ecs;" vertex="1" parent="37Ur7eNhfYniqS4p7nPD-2">
          <mxGeometry x="215" y="671" width="78" height="78" as="geometry" />
        </mxCell>
        <mxCell id="37Ur7eNhfYniqS4p7nPD-47" value="recebimentos" style="sketch=0;points=[[0,0,0],[0.25,0,0],[0.5,0,0],[0.75,0,0],[1,0,0],[0,1,0],[0.25,1,0],[0.5,1,0],[0.75,1,0],[1,1,0],[0,0.25,0],[0,0.5,0],[0,0.75,0],[1,0.25,0],[1,0.5,0],[1,0.75,0]];outlineConnect=0;fontColor=#232F3E;fillColor=#ED7100;strokeColor=#ffffff;dashed=0;verticalLabelPosition=bottom;verticalAlign=top;align=center;html=1;fontSize=12;fontStyle=0;aspect=fixed;shape=mxgraph.aws4.resourceIcon;resIcon=mxgraph.aws4.ecs;" vertex="1" parent="37Ur7eNhfYniqS4p7nPD-2">
          <mxGeometry x="215" y="791" width="78" height="78" as="geometry" />
        </mxCell>
        <mxCell id="37Ur7eNhfYniqS4p7nPD-63" style="edgeStyle=orthogonalEdgeStyle;rounded=0;orthogonalLoop=1;jettySize=auto;html=1;entryX=1;entryY=0.5;entryDx=0;entryDy=0;dashed=1;curved=1;" edge="1" parent="37Ur7eNhfYniqS4p7nPD-2" source="37Ur7eNhfYniqS4p7nPD-48" target="37Ur7eNhfYniqS4p7nPD-60">
          <mxGeometry relative="1" as="geometry" />
        </mxCell>
        <mxCell id="37Ur7eNhfYniqS4p7nPD-48" value="parcelas" style="sketch=0;points=[[0,0,0],[0.25,0,0],[0.5,0,0],[0.75,0,0],[1,0,0],[0,1,0],[0.25,1,0],[0.5,1,0],[0.75,1,0],[1,1,0],[0,0.25,0],[0,0.5,0],[0,0.75,0],[1,0.25,0],[1,0.5,0],[1,0.75,0]];outlineConnect=0;fontColor=#232F3E;fillColor=#ED7100;strokeColor=#ffffff;dashed=0;verticalLabelPosition=bottom;verticalAlign=top;align=center;html=1;fontSize=12;fontStyle=0;aspect=fixed;shape=mxgraph.aws4.resourceIcon;resIcon=mxgraph.aws4.ecs;" vertex="1" parent="37Ur7eNhfYniqS4p7nPD-2">
          <mxGeometry x="325" y="671" width="78" height="78" as="geometry" />
        </mxCell>
        <mxCell id="37Ur7eNhfYniqS4p7nPD-49" value="movimentos" style="sketch=0;points=[[0,0,0],[0.25,0,0],[0.5,0,0],[0.75,0,0],[1,0,0],[0,1,0],[0.25,1,0],[0.5,1,0],[0.75,1,0],[1,1,0],[0,0.25,0],[0,0.5,0],[0,0.75,0],[1,0.25,0],[1,0.5,0],[1,0.75,0]];outlineConnect=0;fontColor=#232F3E;fillColor=#ED7100;strokeColor=#ffffff;dashed=0;verticalLabelPosition=bottom;verticalAlign=top;align=center;html=1;fontSize=12;fontStyle=0;aspect=fixed;shape=mxgraph.aws4.resourceIcon;resIcon=mxgraph.aws4.ecs;" vertex="1" parent="37Ur7eNhfYniqS4p7nPD-2">
          <mxGeometry x="325" y="791" width="78" height="78" as="geometry" />
        </mxCell>
        <mxCell id="37Ur7eNhfYniqS4p7nPD-50" value="eventos negocio" style="sketch=0;points=[[0,0,0],[0.25,0,0],[0.5,0,0],[0.75,0,0],[1,0,0],[0,1,0],[0.25,1,0],[0.5,1,0],[0.75,1,0],[1,1,0],[0,0.25,0],[0,0.5,0],[0,0.75,0],[1,0.25,0],[1,0.5,0],[1,0.75,0]];outlineConnect=0;fontColor=#232F3E;fillColor=#ED7100;strokeColor=#ffffff;dashed=0;verticalLabelPosition=bottom;verticalAlign=top;align=center;html=1;fontSize=12;fontStyle=0;aspect=fixed;shape=mxgraph.aws4.resourceIcon;resIcon=mxgraph.aws4.ecs;" vertex="1" parent="37Ur7eNhfYniqS4p7nPD-2">
          <mxGeometry x="422.75" y="671" width="78" height="78" as="geometry" />
        </mxCell>
        <mxCell id="37Ur7eNhfYniqS4p7nPD-51" value="componentes" style="sketch=0;points=[[0,0,0],[0.25,0,0],[0.5,0,0],[0.75,0,0],[1,0,0],[0,1,0],[0.25,1,0],[0.5,1,0],[0.75,1,0],[1,1,0],[0,0.25,0],[0,0.5,0],[0,0.75,0],[1,0.25,0],[1,0.5,0],[1,0.75,0]];outlineConnect=0;fontColor=#232F3E;fillColor=#ED7100;strokeColor=#ffffff;dashed=0;verticalLabelPosition=bottom;verticalAlign=top;align=center;html=1;fontSize=12;fontStyle=0;aspect=fixed;shape=mxgraph.aws4.resourceIcon;resIcon=mxgraph.aws4.ecs;" vertex="1" parent="37Ur7eNhfYniqS4p7nPD-2">
          <mxGeometry x="422.75" y="791" width="78" height="78" as="geometry" />
        </mxCell>
        <mxCell id="37Ur7eNhfYniqS4p7nPD-52" value="componentes" style="sketch=0;points=[[0,0,0],[0.25,0,0],[0.5,0,0],[0.75,0,0],[1,0,0],[0,1,0],[0.25,1,0],[0.5,1,0],[0.75,1,0],[1,1,0],[0,0.25,0],[0,0.5,0],[0,0.75,0],[1,0.25,0],[1,0.5,0],[1,0.75,0]];outlineConnect=0;fontColor=#232F3E;fillColor=#ED7100;strokeColor=#ffffff;dashed=0;verticalLabelPosition=bottom;verticalAlign=top;align=center;html=1;fontSize=12;fontStyle=0;aspect=fixed;shape=mxgraph.aws4.resourceIcon;resIcon=mxgraph.aws4.ecs;" vertex="1" parent="37Ur7eNhfYniqS4p7nPD-2">
          <mxGeometry x="522.75" y="671" width="78" height="78" as="geometry" />
        </mxCell>
        <mxCell id="37Ur7eNhfYniqS4p7nPD-53" value="perfil cliente" style="sketch=0;points=[[0,0,0],[0.25,0,0],[0.5,0,0],[0.75,0,0],[1,0,0],[0,1,0],[0.25,1,0],[0.5,1,0],[0.75,1,0],[1,1,0],[0,0.25,0],[0,0.5,0],[0,0.75,0],[1,0.25,0],[1,0.5,0],[1,0.75,0]];outlineConnect=0;fontColor=#232F3E;fillColor=#ED7100;strokeColor=#ffffff;dashed=0;verticalLabelPosition=bottom;verticalAlign=top;align=center;html=1;fontSize=12;fontStyle=0;aspect=fixed;shape=mxgraph.aws4.resourceIcon;resIcon=mxgraph.aws4.ecs;" vertex="1" parent="37Ur7eNhfYniqS4p7nPD-2">
          <mxGeometry x="522.75" y="791" width="78" height="78" as="geometry" />
        </mxCell>
        <mxCell id="37Ur7eNhfYniqS4p7nPD-54" value="participante" style="sketch=0;points=[[0,0,0],[0.25,0,0],[0.5,0,0],[0.75,0,0],[1,0,0],[0,1,0],[0.25,1,0],[0.5,1,0],[0.75,1,0],[1,1,0],[0,0.25,0],[0,0.5,0],[0,0.75,0],[1,0.25,0],[1,0.5,0],[1,0.75,0]];outlineConnect=0;fontColor=#232F3E;fillColor=#ED7100;strokeColor=#ffffff;dashed=0;verticalLabelPosition=bottom;verticalAlign=top;align=center;html=1;fontSize=12;fontStyle=0;aspect=fixed;shape=mxgraph.aws4.resourceIcon;resIcon=mxgraph.aws4.ecs;" vertex="1" parent="37Ur7eNhfYniqS4p7nPD-2">
          <mxGeometry x="615" y="671" width="78" height="78" as="geometry" />
        </mxCell>
        <mxCell id="37Ur7eNhfYniqS4p7nPD-55" value="amortizacoes" style="sketch=0;points=[[0,0,0],[0.25,0,0],[0.5,0,0],[0.75,0,0],[1,0,0],[0,1,0],[0.25,1,0],[0.5,1,0],[0.75,1,0],[1,1,0],[0,0.25,0],[0,0.5,0],[0,0.75,0],[1,0.25,0],[1,0.5,0],[1,0.75,0]];outlineConnect=0;fontColor=#232F3E;fillColor=#ED7100;strokeColor=#ffffff;dashed=0;verticalLabelPosition=bottom;verticalAlign=top;align=center;html=1;fontSize=12;fontStyle=0;aspect=fixed;shape=mxgraph.aws4.resourceIcon;resIcon=mxgraph.aws4.ecs;" vertex="1" parent="37Ur7eNhfYniqS4p7nPD-2">
          <mxGeometry x="615" y="791" width="78" height="78" as="geometry" />
        </mxCell>
        <mxCell id="37Ur7eNhfYniqS4p7nPD-56" value="" style="rounded=0;whiteSpace=wrap;html=1;" vertex="1" parent="37Ur7eNhfYniqS4p7nPD-2">
          <mxGeometry x="91.5" y="530" width="105" height="88" as="geometry" />
        </mxCell>
        <mxCell id="37Ur7eNhfYniqS4p7nPD-59" value="libsaldodevedor" style="sketch=0;pointerEvents=1;shadow=0;dashed=0;html=1;strokeColor=none;fillColor=#505050;labelPosition=center;verticalLabelPosition=bottom;verticalAlign=top;outlineConnect=0;align=center;shape=mxgraph.office.concepts.calculator;" vertex="1" parent="37Ur7eNhfYniqS4p7nPD-2">
          <mxGeometry x="128" y="540" width="32" height="46" as="geometry" />
        </mxCell>
        <mxCell id="37Ur7eNhfYniqS4p7nPD-60" value="" style="rounded=0;whiteSpace=wrap;html=1;" vertex="1" parent="37Ur7eNhfYniqS4p7nPD-2">
          <mxGeometry x="215" y="530" width="105" height="88" as="geometry" />
        </mxCell>
        <mxCell id="37Ur7eNhfYniqS4p7nPD-61" value="libiofatraso" style="sketch=0;pointerEvents=1;shadow=0;dashed=0;html=1;strokeColor=none;fillColor=#505050;labelPosition=center;verticalLabelPosition=bottom;verticalAlign=top;outlineConnect=0;align=center;shape=mxgraph.office.concepts.calculator;" vertex="1" parent="37Ur7eNhfYniqS4p7nPD-2">
          <mxGeometry x="250" y="540" width="32" height="46" as="geometry" />
        </mxCell>
        <mxCell id="37Ur7eNhfYniqS4p7nPD-64" style="edgeStyle=orthogonalEdgeStyle;rounded=0;orthogonalLoop=1;jettySize=auto;html=1;entryX=0.555;entryY=0.008;entryDx=0;entryDy=0;entryPerimeter=0;dashed=1;" edge="1" parent="37Ur7eNhfYniqS4p7nPD-2" source="37Ur7eNhfYniqS4p7nPD-41" target="37Ur7eNhfYniqS4p7nPD-43">
          <mxGeometry relative="1" as="geometry" />
        </mxCell>
        <mxCell id="37Ur7eNhfYniqS4p7nPD-72" style="edgeStyle=orthogonalEdgeStyle;rounded=0;orthogonalLoop=1;jettySize=auto;html=1;entryX=0.293;entryY=0.964;entryDx=0;entryDy=0;entryPerimeter=0;exitX=1;exitY=0;exitDx=0;exitDy=0;exitPerimeter=0;curved=1;dashed=1;" edge="1" parent="37Ur7eNhfYniqS4p7nPD-2" source="37Ur7eNhfYniqS4p7nPD-22" target="37Ur7eNhfYniqS4p7nPD-31">
          <mxGeometry relative="1" as="geometry" />
        </mxCell>
        <mxCell id="37Ur7eNhfYniqS4p7nPD-86" value="" style="group" vertex="1" connectable="0" parent="37Ur7eNhfYniqS4p7nPD-2">
          <mxGeometry x="1515" y="71" width="650" height="430" as="geometry" />
        </mxCell>
        <mxCell id="37Ur7eNhfYniqS4p7nPD-85" value="" style="rounded=0;whiteSpace=wrap;html=1;fillColor=#d5e8d4;strokeColor=#82b366;" vertex="1" parent="37Ur7eNhfYniqS4p7nPD-86">
          <mxGeometry x="-90" width="740" height="280" as="geometry" />
        </mxCell>
        <mxCell id="37Ur7eNhfYniqS4p7nPD-129" style="edgeStyle=orthogonalEdgeStyle;rounded=0;orthogonalLoop=1;jettySize=auto;html=1;entryX=0;entryY=0.5;entryDx=0;entryDy=0;dashed=1;" edge="1" parent="37Ur7eNhfYniqS4p7nPD-86" source="37Ur7eNhfYniqS4p7nPD-81" target="37Ur7eNhfYniqS4p7nPD-124">
          <mxGeometry relative="1" as="geometry" />
        </mxCell>
        <mxCell id="37Ur7eNhfYniqS4p7nPD-132" style="edgeStyle=orthogonalEdgeStyle;rounded=0;orthogonalLoop=1;jettySize=auto;html=1;dashed=1;" edge="1" parent="37Ur7eNhfYniqS4p7nPD-86" source="37Ur7eNhfYniqS4p7nPD-81" target="37Ur7eNhfYniqS4p7nPD-131">
          <mxGeometry relative="1" as="geometry" />
        </mxCell>
        <mxCell id="37Ur7eNhfYniqS4p7nPD-81" value="cargacustodiaposvenda" style="sketch=0;points=[[0,0,0],[0.25,0,0],[0.5,0,0],[0.75,0,0],[1,0,0],[0,1,0],[0.25,1,0],[0.5,1,0],[0.75,1,0],[1,1,0],[0,0.25,0],[0,0.5,0],[0,0.75,0],[1,0.25,0],[1,0.5,0],[1,0.75,0]];outlineConnect=0;fontColor=#232F3E;fillColor=#ED7100;strokeColor=#ffffff;dashed=0;verticalLabelPosition=bottom;verticalAlign=top;align=center;html=1;fontSize=12;fontStyle=0;aspect=fixed;shape=mxgraph.aws4.resourceIcon;resIcon=mxgraph.aws4.ecs;" vertex="1" parent="37Ur7eNhfYniqS4p7nPD-86">
          <mxGeometry x="70" y="30" width="78" height="78" as="geometry" />
        </mxCell>
        <mxCell id="37Ur7eNhfYniqS4p7nPD-124" value="" style="rounded=0;whiteSpace=wrap;html=1;" vertex="1" parent="37Ur7eNhfYniqS4p7nPD-86">
          <mxGeometry x="330" y="25" width="180" height="88" as="geometry" />
        </mxCell>
        <mxCell id="37Ur7eNhfYniqS4p7nPD-125" value="EQ3" style="sketch=0;points=[[0,0,0],[0.25,0,0],[0.5,0,0],[0.75,0,0],[1,0,0],[0,1,0],[0.25,1,0],[0.5,1,0],[0.75,1,0],[1,1,0],[0,0.25,0],[0,0.5,0],[0,0.75,0],[1,0.25,0],[1,0.5,0],[1,0.75,0]];outlineConnect=0;fontColor=#232F3E;fillColor=#8C4FFF;strokeColor=#ffffff;dashed=1;verticalLabelPosition=bottom;verticalAlign=top;align=center;html=1;fontSize=12;fontStyle=0;aspect=fixed;shape=mxgraph.aws4.resourceIcon;resIcon=mxgraph.aws4.api_gateway;" vertex="1" parent="37Ur7eNhfYniqS4p7nPD-86">
          <mxGeometry x="432.25" y="46.75" width="35.5" height="35.5" as="geometry" />
        </mxCell>
        <mxCell id="37Ur7eNhfYniqS4p7nPD-126" value="CC" style="sketch=0;points=[[0,0,0],[0.25,0,0],[0.5,0,0],[0.75,0,0],[1,0,0],[0,1,0],[0.25,1,0],[0.5,1,0],[0.75,1,0],[1,1,0],[0,0.25,0],[0,0.5,0],[0,0.75,0],[1,0.25,0],[1,0.5,0],[1,0.75,0]];outlineConnect=0;fontColor=#232F3E;fillColor=#8C4FFF;strokeColor=#ffffff;dashed=1;verticalLabelPosition=bottom;verticalAlign=top;align=center;html=1;fontSize=12;fontStyle=0;aspect=fixed;shape=mxgraph.aws4.resourceIcon;resIcon=mxgraph.aws4.api_gateway;" vertex="1" parent="37Ur7eNhfYniqS4p7nPD-86">
          <mxGeometry x="362.25" y="46.75" width="35.5" height="35.5" as="geometry" />
        </mxCell>
        <mxCell id="37Ur7eNhfYniqS4p7nPD-131" value="alb-coreposvenda" style="sketch=0;outlineConnect=0;fontColor=#232F3E;gradientColor=none;fillColor=#8C4FFF;strokeColor=none;dashed=0;verticalLabelPosition=bottom;verticalAlign=top;align=center;html=1;fontSize=12;fontStyle=0;aspect=fixed;pointerEvents=1;shape=mxgraph.aws4.application_load_balancer;" vertex="1" parent="37Ur7eNhfYniqS4p7nPD-86">
          <mxGeometry x="80" y="186" width="58" height="58" as="geometry" />
        </mxCell>
        <mxCell id="37Ur7eNhfYniqS4p7nPD-134" value="bucket-operacoes" style="sketch=0;outlineConnect=0;fontColor=#232F3E;gradientColor=none;fillColor=#7AA116;strokeColor=none;dashed=0;verticalLabelPosition=bottom;verticalAlign=top;align=center;html=1;fontSize=12;fontStyle=0;aspect=fixed;pointerEvents=1;shape=mxgraph.aws4.bucket;" vertex="1" parent="37Ur7eNhfYniqS4p7nPD-86">
          <mxGeometry x="460" y="340" width="60" height="62.4" as="geometry" />
        </mxCell>
        <mxCell id="37Ur7eNhfYniqS4p7nPD-154" value="operation_load_queue" style="sketch=0;points=[[0,0,0],[0.25,0,0],[0.5,0,0],[0.75,0,0],[1,0,0],[0,1,0],[0.25,1,0],[0.5,1,0],[0.75,1,0],[1,1,0],[0,0.25,0],[0,0.5,0],[0,0.75,0],[1,0.25,0],[1,0.5,0],[1,0.75,0]];outlineConnect=0;fontColor=#232F3E;fillColor=#E7157B;strokeColor=#ffffff;dashed=0;verticalLabelPosition=bottom;verticalAlign=top;align=center;html=1;fontSize=12;fontStyle=0;aspect=fixed;shape=mxgraph.aws4.resourceIcon;resIcon=mxgraph.aws4.sqs;" vertex="1" parent="37Ur7eNhfYniqS4p7nPD-86">
          <mxGeometry x="389.75" y="150" width="78" height="78" as="geometry" />
        </mxCell>
        <mxCell id="37Ur7eNhfYniqS4p7nPD-155" style="edgeStyle=orthogonalEdgeStyle;rounded=0;orthogonalLoop=1;jettySize=auto;html=1;entryX=1;entryY=0.75;entryDx=0;entryDy=0;entryPerimeter=0;dashed=1;" edge="1" parent="37Ur7eNhfYniqS4p7nPD-86" source="37Ur7eNhfYniqS4p7nPD-154" target="37Ur7eNhfYniqS4p7nPD-81">
          <mxGeometry relative="1" as="geometry" />
        </mxCell>
        <mxCell id="37Ur7eNhfYniqS4p7nPD-87" style="edgeStyle=orthogonalEdgeStyle;rounded=0;orthogonalLoop=1;jettySize=auto;html=1;dashed=1;curved=1;" edge="1" parent="37Ur7eNhfYniqS4p7nPD-2" source="37Ur7eNhfYniqS4p7nPD-81" target="37Ur7eNhfYniqS4p7nPD-24">
          <mxGeometry relative="1" as="geometry" />
        </mxCell>
        <mxCell id="37Ur7eNhfYniqS4p7nPD-130" value="" style="rounded=0;whiteSpace=wrap;html=1;fillColor=#d5e8d4;strokeColor=#82b366;" vertex="1" parent="37Ur7eNhfYniqS4p7nPD-2">
          <mxGeometry x="1425" y="381" width="735" height="229" as="geometry" />
        </mxCell>
        <mxCell id="37Ur7eNhfYniqS4p7nPD-133" value="GLUE(OFFLINE)" style="text;html=1;align=center;verticalAlign=middle;whiteSpace=wrap;rounded=0;fillColor=#ffe6cc;strokeColor=#d79b00;" vertex="1" parent="37Ur7eNhfYniqS4p7nPD-2">
          <mxGeometry x="1425" y="381" width="105" height="43.14" as="geometry" />
        </mxCell>
        <mxCell id="37Ur7eNhfYniqS4p7nPD-138" style="edgeStyle=orthogonalEdgeStyle;rounded=0;orthogonalLoop=1;jettySize=auto;html=1;" edge="1" parent="37Ur7eNhfYniqS4p7nPD-2" source="37Ur7eNhfYniqS4p7nPD-135" target="37Ur7eNhfYniqS4p7nPD-137">
          <mxGeometry relative="1" as="geometry" />
        </mxCell>
        <mxCell id="37Ur7eNhfYniqS4p7nPD-135" value="event bridge" style="sketch=0;points=[[0,0,0],[0.25,0,0],[0.5,0,0],[0.75,0,0],[1,0,0],[0,1,0],[0.25,1,0],[0.5,1,0],[0.75,1,0],[1,1,0],[0,0.25,0],[0,0.5,0],[0,0.75,0],[1,0.25,0],[1,0.5,0],[1,0.75,0]];outlineConnect=0;fontColor=#232F3E;fillColor=#E7157B;strokeColor=#ffffff;dashed=0;verticalLabelPosition=bottom;verticalAlign=top;align=center;html=1;fontSize=12;fontStyle=0;aspect=fixed;shape=mxgraph.aws4.resourceIcon;resIcon=mxgraph.aws4.eventbridge;" vertex="1" parent="37Ur7eNhfYniqS4p7nPD-2">
          <mxGeometry x="1775" y="462" width="78" height="78" as="geometry" />
        </mxCell>
        <mxCell id="37Ur7eNhfYniqS4p7nPD-139" style="edgeStyle=orthogonalEdgeStyle;rounded=0;orthogonalLoop=1;jettySize=auto;html=1;dashed=1;" edge="1" parent="37Ur7eNhfYniqS4p7nPD-2" source="37Ur7eNhfYniqS4p7nPD-137" target="37Ur7eNhfYniqS4p7nPD-24">
          <mxGeometry relative="1" as="geometry" />
        </mxCell>
        <mxCell id="37Ur7eNhfYniqS4p7nPD-141" style="edgeStyle=orthogonalEdgeStyle;rounded=0;orthogonalLoop=1;jettySize=auto;html=1;dashed=1;" edge="1" parent="37Ur7eNhfYniqS4p7nPD-2" source="37Ur7eNhfYniqS4p7nPD-137" target="37Ur7eNhfYniqS4p7nPD-140">
          <mxGeometry relative="1" as="geometry" />
        </mxCell>
        <mxCell id="37Ur7eNhfYniqS4p7nPD-137" value="gluejobcarga" style="sketch=0;points=[[0,0,0],[0.25,0,0],[0.5,0,0],[0.75,0,0],[1,0,0],[0,1,0],[0.25,1,0],[0.5,1,0],[0.75,1,0],[1,1,0],[0,0.25,0],[0,0.5,0],[0,0.75,0],[1,0.25,0],[1,0.5,0],[1,0.75,0]];outlineConnect=0;fontColor=#232F3E;fillColor=#8C4FFF;strokeColor=#ffffff;dashed=0;verticalLabelPosition=bottom;verticalAlign=top;align=center;html=1;fontSize=12;fontStyle=0;aspect=fixed;shape=mxgraph.aws4.resourceIcon;resIcon=mxgraph.aws4.glue;" vertex="1" parent="37Ur7eNhfYniqS4p7nPD-2">
          <mxGeometry x="1555" y="462" width="78" height="78" as="geometry" />
        </mxCell>
        <mxCell id="37Ur7eNhfYniqS4p7nPD-140" value="datamesh" style="sketch=0;outlineConnect=0;fontColor=#232F3E;gradientColor=none;fillColor=#7AA116;strokeColor=none;dashed=0;verticalLabelPosition=bottom;verticalAlign=top;align=center;html=1;fontSize=12;fontStyle=0;aspect=fixed;pointerEvents=1;shape=mxgraph.aws4.bucket;" vertex="1" parent="37Ur7eNhfYniqS4p7nPD-2">
          <mxGeometry x="1284" y="586" width="60" height="62.4" as="geometry" />
        </mxCell>
        <mxCell id="37Ur7eNhfYniqS4p7nPD-146" value="datamesh" style="sketch=0;outlineConnect=0;fontColor=#232F3E;gradientColor=none;fillColor=#7AA116;strokeColor=none;dashed=0;verticalLabelPosition=bottom;verticalAlign=top;align=center;html=1;fontSize=12;fontStyle=0;aspect=fixed;pointerEvents=1;shape=mxgraph.aws4.bucket;" vertex="1" parent="37Ur7eNhfYniqS4p7nPD-2">
          <mxGeometry x="1995" y="469.79999999999995" width="60" height="62.4" as="geometry" />
        </mxCell>
        <mxCell id="37Ur7eNhfYniqS4p7nPD-147" style="edgeStyle=orthogonalEdgeStyle;rounded=0;orthogonalLoop=1;jettySize=auto;html=1;entryX=1;entryY=0.5;entryDx=0;entryDy=0;entryPerimeter=0;" edge="1" parent="37Ur7eNhfYniqS4p7nPD-2" source="37Ur7eNhfYniqS4p7nPD-146" target="37Ur7eNhfYniqS4p7nPD-135">
          <mxGeometry relative="1" as="geometry" />
        </mxCell>
        <mxCell id="37Ur7eNhfYniqS4p7nPD-186" style="edgeStyle=orthogonalEdgeStyle;rounded=0;orthogonalLoop=1;jettySize=auto;html=1;dashed=1;" edge="1" parent="37Ur7eNhfYniqS4p7nPD-2" source="37Ur7eNhfYniqS4p7nPD-182" target="37Ur7eNhfYniqS4p7nPD-140">
          <mxGeometry relative="1" as="geometry" />
        </mxCell>
        <mxCell id="37Ur7eNhfYniqS4p7nPD-191" value="&lt;b&gt;3&lt;/b&gt;" style="rounded=0;whiteSpace=wrap;html=1;fillColor=#dae8fc;strokeColor=#6c8ebf;" vertex="1" parent="37Ur7eNhfYniqS4p7nPD-2">
          <mxGeometry x="745" y="251" width="50" height="29" as="geometry" />
        </mxCell>
        <mxCell id="37Ur7eNhfYniqS4p7nPD-192" value="&lt;b&gt;4&lt;/b&gt;" style="rounded=0;whiteSpace=wrap;html=1;fillColor=#dae8fc;strokeColor=#6c8ebf;" vertex="1" parent="37Ur7eNhfYniqS4p7nPD-2">
          <mxGeometry x="1085" y="251" width="50" height="29" as="geometry" />
        </mxCell>
        <mxCell id="37Ur7eNhfYniqS4p7nPD-193" value="&lt;b&gt;5&lt;/b&gt;" style="rounded=0;whiteSpace=wrap;html=1;fillColor=#dae8fc;strokeColor=#6c8ebf;" vertex="1" parent="37Ur7eNhfYniqS4p7nPD-2">
          <mxGeometry x="1215" y="331" width="50" height="29" as="geometry" />
        </mxCell>
        <mxCell id="37Ur7eNhfYniqS4p7nPD-194" value="&lt;b&gt;6&lt;/b&gt;" style="rounded=0;whiteSpace=wrap;html=1;fillColor=#dae8fc;strokeColor=#6c8ebf;" vertex="1" parent="37Ur7eNhfYniqS4p7nPD-2">
          <mxGeometry x="728" y="631" width="50" height="29" as="geometry" />
        </mxCell>
        <mxCell id="37Ur7eNhfYniqS4p7nPD-196" value="&lt;b&gt;8&lt;/b&gt;" style="rounded=0;whiteSpace=wrap;html=1;fillColor=#dae8fc;strokeColor=#6c8ebf;" vertex="1" parent="37Ur7eNhfYniqS4p7nPD-2">
          <mxGeometry x="1445" y="519" width="50" height="29" as="geometry" />
        </mxCell>
        <mxCell id="37Ur7eNhfYniqS4p7nPD-12" style="edgeStyle=orthogonalEdgeStyle;rounded=0;orthogonalLoop=1;jettySize=auto;html=1;dashed=1;" edge="1" parent="37Ur7eNhfYniqS4p7nPD-1" source="37Ur7eNhfYniqS4p7nPD-8" target="37Ur7eNhfYniqS4p7nPD-11">
          <mxGeometry relative="1" as="geometry" />
        </mxCell>
        <mxCell id="37Ur7eNhfYniqS4p7nPD-8" value="api-posvenda" style="sketch=0;points=[[0,0,0],[0.25,0,0],[0.5,0,0],[0.75,0,0],[1,0,0],[0,1,0],[0.25,1,0],[0.5,1,0],[0.75,1,0],[1,1,0],[0,0.25,0],[0,0.5,0],[0,0.75,0],[1,0.25,0],[1,0.5,0],[1,0.75,0]];outlineConnect=0;fontColor=#232F3E;fillColor=#8C4FFF;strokeColor=#ffffff;dashed=0;verticalLabelPosition=bottom;verticalAlign=top;align=center;html=1;fontSize=12;fontStyle=0;aspect=fixed;shape=mxgraph.aws4.resourceIcon;resIcon=mxgraph.aws4.api_gateway;" vertex="1" parent="37Ur7eNhfYniqS4p7nPD-1">
          <mxGeometry x="620" y="40" width="68" height="68" as="geometry" />
        </mxCell>
        <mxCell id="37Ur7eNhfYniqS4p7nPD-14" style="edgeStyle=orthogonalEdgeStyle;rounded=0;orthogonalLoop=1;jettySize=auto;html=1;dashed=1;" edge="1" parent="37Ur7eNhfYniqS4p7nPD-1" source="37Ur7eNhfYniqS4p7nPD-11" target="37Ur7eNhfYniqS4p7nPD-13">
          <mxGeometry relative="1" as="geometry" />
        </mxCell>
        <mxCell id="37Ur7eNhfYniqS4p7nPD-11" value="VPC Link" style="sketch=0;outlineConnect=0;fontColor=#232F3E;gradientColor=none;fillColor=#8C4FFF;strokeColor=none;dashed=0;verticalLabelPosition=bottom;verticalAlign=top;align=center;html=1;fontSize=12;fontStyle=0;aspect=fixed;pointerEvents=1;shape=mxgraph.aws4.endpoints;" vertex="1" parent="37Ur7eNhfYniqS4p7nPD-1">
          <mxGeometry x="639" y="170" width="30" height="30" as="geometry" />
        </mxCell>
        <mxCell id="37Ur7eNhfYniqS4p7nPD-20" style="edgeStyle=orthogonalEdgeStyle;rounded=0;orthogonalLoop=1;jettySize=auto;html=1;dashed=1;" edge="1" parent="37Ur7eNhfYniqS4p7nPD-1" source="37Ur7eNhfYniqS4p7nPD-17" target="37Ur7eNhfYniqS4p7nPD-18">
          <mxGeometry relative="1" as="geometry" />
        </mxCell>
        <mxCell id="37Ur7eNhfYniqS4p7nPD-17" value="gateway-posvenda" style="sketch=0;points=[[0,0,0],[0.25,0,0],[0.5,0,0],[0.75,0,0],[1,0,0],[0,1,0],[0.25,1,0],[0.5,1,0],[0.75,1,0],[1,1,0],[0,0.25,0],[0,0.5,0],[0,0.75,0],[1,0.25,0],[1,0.5,0],[1,0.75,0]];outlineConnect=0;fontColor=#232F3E;fillColor=#8C4FFF;strokeColor=#ffffff;dashed=0;verticalLabelPosition=bottom;verticalAlign=top;align=center;html=1;fontSize=12;fontStyle=0;aspect=fixed;shape=mxgraph.aws4.resourceIcon;resIcon=mxgraph.aws4.api_gateway;" vertex="1" parent="37Ur7eNhfYniqS4p7nPD-1">
          <mxGeometry x="1020" y="40" width="68" height="68" as="geometry" />
        </mxCell>
        <mxCell id="37Ur7eNhfYniqS4p7nPD-21" style="edgeStyle=orthogonalEdgeStyle;rounded=0;orthogonalLoop=1;jettySize=auto;html=1;dashed=1;" edge="1" parent="37Ur7eNhfYniqS4p7nPD-1" source="37Ur7eNhfYniqS4p7nPD-18" target="37Ur7eNhfYniqS4p7nPD-13">
          <mxGeometry relative="1" as="geometry" />
        </mxCell>
        <mxCell id="37Ur7eNhfYniqS4p7nPD-18" value="VPC Link" style="sketch=0;outlineConnect=0;fontColor=#232F3E;gradientColor=none;fillColor=#8C4FFF;strokeColor=none;dashed=0;verticalLabelPosition=bottom;verticalAlign=top;align=center;html=1;fontSize=12;fontStyle=0;aspect=fixed;pointerEvents=1;shape=mxgraph.aws4.endpoints;" vertex="1" parent="37Ur7eNhfYniqS4p7nPD-1">
          <mxGeometry x="1039" y="170" width="30" height="30" as="geometry" />
        </mxCell>
        <mxCell id="37Ur7eNhfYniqS4p7nPD-119" style="edgeStyle=orthogonalEdgeStyle;rounded=0;orthogonalLoop=1;jettySize=auto;html=1;dashed=1;curved=1;" edge="1" parent="37Ur7eNhfYniqS4p7nPD-1" source="37Ur7eNhfYniqS4p7nPD-115" target="37Ur7eNhfYniqS4p7nPD-81">
          <mxGeometry relative="1" as="geometry" />
        </mxCell>
        <mxCell id="37Ur7eNhfYniqS4p7nPD-115" value="stream" style="ellipse;whiteSpace=wrap;html=1;aspect=fixed;fillColor=#f8cecc;strokeColor=#b85450;" vertex="1" parent="37Ur7eNhfYniqS4p7nPD-1">
          <mxGeometry x="1767.5" y="100" width="65" height="65" as="geometry" />
        </mxCell>
        <mxCell id="37Ur7eNhfYniqS4p7nPD-187" value="&lt;b&gt;1&lt;/b&gt;" style="rounded=0;whiteSpace=wrap;html=1;fillColor=#dae8fc;strokeColor=#6c8ebf;" vertex="1" parent="37Ur7eNhfYniqS4p7nPD-1">
          <mxGeometry x="705" y="40" width="50" height="29" as="geometry" />
        </mxCell>
        <mxCell id="37Ur7eNhfYniqS4p7nPD-188" value="&lt;b&gt;2&lt;/b&gt;" style="rounded=0;whiteSpace=wrap;html=1;fillColor=#dae8fc;strokeColor=#6c8ebf;" vertex="1" parent="37Ur7eNhfYniqS4p7nPD-1">
          <mxGeometry x="1109" y="40" width="50" height="29" as="geometry" />
        </mxCell>
        <mxCell id="37Ur7eNhfYniqS4p7nPD-10" style="edgeStyle=orthogonalEdgeStyle;rounded=0;orthogonalLoop=1;jettySize=auto;html=1;dashed=1;" edge="1" parent="1" source="37Ur7eNhfYniqS4p7nPD-9" target="37Ur7eNhfYniqS4p7nPD-8">
          <mxGeometry relative="1" as="geometry" />
        </mxCell>
        <mxCell id="37Ur7eNhfYniqS4p7nPD-19" style="edgeStyle=orthogonalEdgeStyle;rounded=0;orthogonalLoop=1;jettySize=auto;html=1;dashed=1;" edge="1" parent="1" source="37Ur7eNhfYniqS4p7nPD-9" target="37Ur7eNhfYniqS4p7nPD-17">
          <mxGeometry relative="1" as="geometry" />
        </mxCell>
        <mxCell id="37Ur7eNhfYniqS4p7nPD-9" value="usuários" style="sketch=0;outlineConnect=0;fontColor=#232F3E;gradientColor=none;fillColor=#232F3D;strokeColor=none;dashed=1;verticalLabelPosition=bottom;verticalAlign=top;align=center;html=1;fontSize=12;fontStyle=0;aspect=fixed;pointerEvents=1;shape=mxgraph.aws4.users;" vertex="1" parent="1">
          <mxGeometry x="240" y="-330" width="78" height="78" as="geometry" />
        </mxCell>
        <mxCell id="37Ur7eNhfYniqS4p7nPD-65" value="" style="rounded=0;whiteSpace=wrap;html=1;fillColor=#dae8fc;strokeColor=#6c8ebf;" vertex="1" parent="1">
          <mxGeometry x="-600" y="1500" width="955" height="209" as="geometry" />
        </mxCell>
        <mxCell id="37Ur7eNhfYniqS4p7nPD-66" value="MAINFRAME" style="sketch=0;pointerEvents=1;shadow=0;dashed=0;html=1;strokeColor=none;fillColor=#505050;labelPosition=center;verticalLabelPosition=bottom;verticalAlign=top;outlineConnect=0;align=center;shape=mxgraph.office.servers.mainframe;" vertex="1" parent="1">
          <mxGeometry x="-370" y="1574.5" width="83" height="70" as="geometry" />
        </mxCell>
        <mxCell id="37Ur7eNhfYniqS4p7nPD-67" style="rounded=0;orthogonalLoop=1;jettySize=auto;html=1;dashed=1;exitX=0.23;exitY=1.007;exitDx=0;exitDy=0;exitPerimeter=0;" edge="1" parent="1" source="37Ur7eNhfYniqS4p7nPD-43" target="37Ur7eNhfYniqS4p7nPD-66">
          <mxGeometry relative="1" as="geometry" />
        </mxCell>
        <mxCell id="37Ur7eNhfYniqS4p7nPD-79" value="" style="group" vertex="1" connectable="0" parent="1">
          <mxGeometry x="585" y="-310" width="1115" height="260" as="geometry" />
        </mxCell>
        <mxCell id="37Ur7eNhfYniqS4p7nPD-74" value="" style="rounded=0;whiteSpace=wrap;html=1;fillColor=#fff2cc;strokeColor=#d6b656;" vertex="1" parent="37Ur7eNhfYniqS4p7nPD-79">
          <mxGeometry width="450" height="160" as="geometry" />
        </mxCell>
        <mxCell id="37Ur7eNhfYniqS4p7nPD-75" value="tbmv60" style="sketch=0;points=[[0,0,0],[0.25,0,0],[0.5,0,0],[0.75,0,0],[1,0,0],[0,1,0],[0.25,1,0],[0.5,1,0],[0.75,1,0],[1,1,0],[0,0.25,0],[0,0.5,0],[0,0.75,0],[1,0.25,0],[1,0.5,0],[1,0.75,0]];outlineConnect=0;fontColor=#232F3E;fillColor=#8C4FFF;strokeColor=#ffffff;dashed=0;verticalLabelPosition=bottom;verticalAlign=top;align=center;html=1;fontSize=12;fontStyle=0;aspect=fixed;shape=mxgraph.aws4.resourceIcon;resIcon=mxgraph.aws4.managed_streaming_for_kafka;" vertex="1" parent="37Ur7eNhfYniqS4p7nPD-79">
          <mxGeometry x="30" y="37.142857142857146" width="70" height="70" as="geometry" />
        </mxCell>
        <mxCell id="37Ur7eNhfYniqS4p7nPD-76" value="tbmv70" style="sketch=0;points=[[0,0,0],[0.25,0,0],[0.5,0,0],[0.75,0,0],[1,0,0],[0,1,0],[0.25,1,0],[0.5,1,0],[0.75,1,0],[1,1,0],[0,0.25,0],[0,0.5,0],[0,0.75,0],[1,0.25,0],[1,0.5,0],[1,0.75,0]];outlineConnect=0;fontColor=#232F3E;fillColor=#8C4FFF;strokeColor=#ffffff;dashed=0;verticalLabelPosition=bottom;verticalAlign=top;align=center;html=1;fontSize=12;fontStyle=0;aspect=fixed;shape=mxgraph.aws4.resourceIcon;resIcon=mxgraph.aws4.managed_streaming_for_kafka;" vertex="1" parent="37Ur7eNhfYniqS4p7nPD-79">
          <mxGeometry x="140" y="37.142857142857146" width="70" height="70" as="geometry" />
        </mxCell>
        <mxCell id="37Ur7eNhfYniqS4p7nPD-77" value="tbmv80" style="sketch=0;points=[[0,0,0],[0.25,0,0],[0.5,0,0],[0.75,0,0],[1,0,0],[0,1,0],[0.25,1,0],[0.5,1,0],[0.75,1,0],[1,1,0],[0,0.25,0],[0,0.5,0],[0,0.75,0],[1,0.25,0],[1,0.5,0],[1,0.75,0]];outlineConnect=0;fontColor=#232F3E;fillColor=#8C4FFF;strokeColor=#ffffff;dashed=0;verticalLabelPosition=bottom;verticalAlign=top;align=center;html=1;fontSize=12;fontStyle=0;aspect=fixed;shape=mxgraph.aws4.resourceIcon;resIcon=mxgraph.aws4.managed_streaming_for_kafka;" vertex="1" parent="37Ur7eNhfYniqS4p7nPD-79">
          <mxGeometry x="250" y="37.142857142857146" width="70" height="70" as="geometry" />
        </mxCell>
        <mxCell id="37Ur7eNhfYniqS4p7nPD-78" value="tbmv90" style="sketch=0;points=[[0,0,0],[0.25,0,0],[0.5,0,0],[0.75,0,0],[1,0,0],[0,1,0],[0.25,1,0],[0.5,1,0],[0.75,1,0],[1,1,0],[0,0.25,0],[0,0.5,0],[0,0.75,0],[1,0.25,0],[1,0.5,0],[1,0.75,0]];outlineConnect=0;fontColor=#232F3E;fillColor=#8C4FFF;strokeColor=#ffffff;dashed=0;verticalLabelPosition=bottom;verticalAlign=top;align=center;html=1;fontSize=12;fontStyle=0;aspect=fixed;shape=mxgraph.aws4.resourceIcon;resIcon=mxgraph.aws4.managed_streaming_for_kafka;" vertex="1" parent="37Ur7eNhfYniqS4p7nPD-79">
          <mxGeometry x="350" y="37.142857142857146" width="70" height="70" as="geometry" />
        </mxCell>
        <mxCell id="37Ur7eNhfYniqS4p7nPD-93" value="" style="group" vertex="1" connectable="0" parent="37Ur7eNhfYniqS4p7nPD-79">
          <mxGeometry x="465" width="650" height="260" as="geometry" />
        </mxCell>
        <mxCell id="37Ur7eNhfYniqS4p7nPD-94" value="" style="rounded=0;whiteSpace=wrap;html=1;fillColor=#fff2cc;strokeColor=#d6b656;" vertex="1" parent="37Ur7eNhfYniqS4p7nPD-93">
          <mxGeometry width="350" height="160" as="geometry" />
        </mxCell>
        <mxCell id="37Ur7eNhfYniqS4p7nPD-95" value="leigiro" style="sketch=0;points=[[0,0,0],[0.25,0,0],[0.5,0,0],[0.75,0,0],[1,0,0],[0,1,0],[0.25,1,0],[0.5,1,0],[0.75,1,0],[1,1,0],[0,0.25,0],[0,0.5,0],[0,0.75,0],[1,0.25,0],[1,0.5,0],[1,0.75,0]];outlineConnect=0;fontColor=#232F3E;fillColor=#8C4FFF;strokeColor=#ffffff;dashed=0;verticalLabelPosition=bottom;verticalAlign=top;align=center;html=1;fontSize=12;fontStyle=0;aspect=fixed;shape=mxgraph.aws4.resourceIcon;resIcon=mxgraph.aws4.managed_streaming_for_kafka;" vertex="1" parent="37Ur7eNhfYniqS4p7nPD-93">
          <mxGeometry x="30" y="37.142857142857146" width="70" height="70" as="geometry" />
        </mxCell>
        <mxCell id="37Ur7eNhfYniqS4p7nPD-96" value="leiveiculos" style="sketch=0;points=[[0,0,0],[0.25,0,0],[0.5,0,0],[0.75,0,0],[1,0,0],[0,1,0],[0.25,1,0],[0.5,1,0],[0.75,1,0],[1,1,0],[0,0.25,0],[0,0.5,0],[0,0.75,0],[1,0.25,0],[1,0.5,0],[1,0.75,0]];outlineConnect=0;fontColor=#232F3E;fillColor=#8C4FFF;strokeColor=#ffffff;dashed=0;verticalLabelPosition=bottom;verticalAlign=top;align=center;html=1;fontSize=12;fontStyle=0;aspect=fixed;shape=mxgraph.aws4.resourceIcon;resIcon=mxgraph.aws4.managed_streaming_for_kafka;" vertex="1" parent="37Ur7eNhfYniqS4p7nPD-93">
          <mxGeometry x="140" y="37.142857142857146" width="70" height="70" as="geometry" />
        </mxCell>
        <mxCell id="37Ur7eNhfYniqS4p7nPD-97" value="leicrediario" style="sketch=0;points=[[0,0,0],[0.25,0,0],[0.5,0,0],[0.75,0,0],[1,0,0],[0,1,0],[0.25,1,0],[0.5,1,0],[0.75,1,0],[1,1,0],[0,0.25,0],[0,0.5,0],[0,0.75,0],[1,0.25,0],[1,0.5,0],[1,0.75,0]];outlineConnect=0;fontColor=#232F3E;fillColor=#8C4FFF;strokeColor=#ffffff;dashed=0;verticalLabelPosition=bottom;verticalAlign=top;align=center;html=1;fontSize=12;fontStyle=0;aspect=fixed;shape=mxgraph.aws4.resourceIcon;resIcon=mxgraph.aws4.managed_streaming_for_kafka;" vertex="1" parent="37Ur7eNhfYniqS4p7nPD-93">
          <mxGeometry x="250" y="37.142857142857146" width="70" height="70" as="geometry" />
        </mxCell>
        <mxCell id="37Ur7eNhfYniqS4p7nPD-99" value="" style="group" vertex="1" connectable="0" parent="1">
          <mxGeometry x="1420" y="-310" width="650" height="260" as="geometry" />
        </mxCell>
        <mxCell id="37Ur7eNhfYniqS4p7nPD-100" value="" style="rounded=0;whiteSpace=wrap;html=1;fillColor=#fff2cc;strokeColor=#d6b656;" vertex="1" parent="37Ur7eNhfYniqS4p7nPD-99">
          <mxGeometry width="130" height="160" as="geometry" />
        </mxCell>
        <mxCell id="37Ur7eNhfYniqS4p7nPD-101" value="registro" style="sketch=0;points=[[0,0,0],[0.25,0,0],[0.5,0,0],[0.75,0,0],[1,0,0],[0,1,0],[0.25,1,0],[0.5,1,0],[0.75,1,0],[1,1,0],[0,0.25,0],[0,0.5,0],[0,0.75,0],[1,0.25,0],[1,0.5,0],[1,0.75,0]];outlineConnect=0;fontColor=#232F3E;fillColor=#8C4FFF;strokeColor=#ffffff;dashed=0;verticalLabelPosition=bottom;verticalAlign=top;align=center;html=1;fontSize=12;fontStyle=0;aspect=fixed;shape=mxgraph.aws4.resourceIcon;resIcon=mxgraph.aws4.managed_streaming_for_kafka;" vertex="1" parent="37Ur7eNhfYniqS4p7nPD-99">
          <mxGeometry x="30" y="37.142857142857146" width="70" height="70" as="geometry" />
        </mxCell>
        <mxCell id="37Ur7eNhfYniqS4p7nPD-82" value="CDC (ONLINE)" style="text;html=1;align=center;verticalAlign=middle;whiteSpace=wrap;rounded=0;fillColor=#ffe6cc;strokeColor=#d79b00;" vertex="1" parent="1">
          <mxGeometry x="870" y="160" width="100" height="43.14" as="geometry" />
        </mxCell>
        <mxCell id="37Ur7eNhfYniqS4p7nPD-116" style="edgeStyle=orthogonalEdgeStyle;rounded=0;orthogonalLoop=1;jettySize=auto;html=1;entryX=0;entryY=0.5;entryDx=0;entryDy=0;" edge="1" parent="1" source="37Ur7eNhfYniqS4p7nPD-74" target="37Ur7eNhfYniqS4p7nPD-115">
          <mxGeometry relative="1" as="geometry">
            <Array as="points">
              <mxPoint x="970" y="-8" />
            </Array>
          </mxGeometry>
        </mxCell>
        <mxCell id="37Ur7eNhfYniqS4p7nPD-117" style="edgeStyle=orthogonalEdgeStyle;rounded=0;orthogonalLoop=1;jettySize=auto;html=1;" edge="1" parent="1" source="37Ur7eNhfYniqS4p7nPD-94" target="37Ur7eNhfYniqS4p7nPD-115">
          <mxGeometry relative="1" as="geometry" />
        </mxCell>
        <mxCell id="37Ur7eNhfYniqS4p7nPD-118" style="edgeStyle=orthogonalEdgeStyle;rounded=0;orthogonalLoop=1;jettySize=auto;html=1;entryX=1;entryY=0.5;entryDx=0;entryDy=0;" edge="1" parent="1" source="37Ur7eNhfYniqS4p7nPD-100" target="37Ur7eNhfYniqS4p7nPD-115">
          <mxGeometry relative="1" as="geometry">
            <Array as="points">
              <mxPoint x="1480" y="-8" />
            </Array>
          </mxGeometry>
        </mxCell>
        <mxCell id="37Ur7eNhfYniqS4p7nPD-120" value="API Maestro/Gestao Carteira" style="sketch=0;points=[[0,0,0],[0.25,0,0],[0.5,0,0],[0.75,0,0],[1,0,0],[0,1,0],[0.25,1,0],[0.5,1,0],[0.75,1,0],[1,1,0],[0,0.25,0],[0,0.5,0],[0,0.75,0],[1,0.25,0],[1,0.5,0],[1,0.75,0]];outlineConnect=0;fontColor=#232F3E;fillColor=#8C4FFF;strokeColor=#ffffff;dashed=0;verticalLabelPosition=bottom;verticalAlign=top;align=center;html=1;fontSize=12;fontStyle=0;aspect=fixed;shape=mxgraph.aws4.resourceIcon;resIcon=mxgraph.aws4.api_gateway;" vertex="1" parent="1">
          <mxGeometry x="-186.5" y="1564.5" width="68" height="68" as="geometry" />
        </mxCell>
        <mxCell id="37Ur7eNhfYniqS4p7nPD-121" style="edgeStyle=orthogonalEdgeStyle;rounded=0;orthogonalLoop=1;jettySize=auto;html=1;dashed=1;" edge="1" parent="1" source="37Ur7eNhfYniqS4p7nPD-43" target="37Ur7eNhfYniqS4p7nPD-120">
          <mxGeometry relative="1" as="geometry" />
        </mxCell>
        <mxCell id="37Ur7eNhfYniqS4p7nPD-142" value="" style="rounded=0;whiteSpace=wrap;html=1;fillColor=#f8cecc;strokeColor=#b85450;" vertex="1" parent="1">
          <mxGeometry x="1770" y="530" width="280" height="140" as="geometry" />
        </mxCell>
        <mxCell id="37Ur7eNhfYniqS4p7nPD-148" style="edgeStyle=orthogonalEdgeStyle;rounded=0;orthogonalLoop=1;jettySize=auto;html=1;" edge="1" parent="1" source="37Ur7eNhfYniqS4p7nPD-143" target="37Ur7eNhfYniqS4p7nPD-146">
          <mxGeometry relative="1" as="geometry" />
        </mxCell>
        <mxCell id="37Ur7eNhfYniqS4p7nPD-143" value="BATCH MAINFRAME" style="sketch=0;pointerEvents=1;shadow=0;dashed=0;html=1;strokeColor=none;fillColor=#505050;labelPosition=center;verticalLabelPosition=bottom;verticalAlign=top;outlineConnect=0;align=center;shape=mxgraph.office.servers.mainframe;" vertex="1" parent="1">
          <mxGeometry x="1881" y="569" width="58" height="42" as="geometry" />
        </mxCell>
        <mxCell id="37Ur7eNhfYniqS4p7nPD-170" style="edgeStyle=orthogonalEdgeStyle;rounded=0;orthogonalLoop=1;jettySize=auto;html=1;dashed=1;" edge="1" parent="1" source="37Ur7eNhfYniqS4p7nPD-157" target="37Ur7eNhfYniqS4p7nPD-152">
          <mxGeometry relative="1" as="geometry" />
        </mxCell>
        <mxCell id="37Ur7eNhfYniqS4p7nPD-157" value="" style="rounded=0;whiteSpace=wrap;html=1;fillColor=#ffe6cc;strokeColor=#d79b00;" vertex="1" parent="1">
          <mxGeometry x="1770" y="780" width="380" height="130" as="geometry" />
        </mxCell>
        <mxCell id="37Ur7eNhfYniqS4p7nPD-158" value="alteracao_meio_cobranca" style="sketch=0;points=[[0,0,0],[0.25,0,0],[0.5,0,0],[0.75,0,0],[1,0,0],[0,1,0],[0.25,1,0],[0.5,1,0],[0.75,1,0],[1,1,0],[0,0.25,0],[0,0.5,0],[0,0.75,0],[1,0.25,0],[1,0.5,0],[1,0.75,0]];outlineConnect=0;fontColor=#232F3E;fillColor=#8C4FFF;strokeColor=#ffffff;dashed=0;verticalLabelPosition=bottom;verticalAlign=top;align=center;html=1;fontSize=12;fontStyle=0;aspect=fixed;shape=mxgraph.aws4.resourceIcon;resIcon=mxgraph.aws4.managed_streaming_for_kafka;" vertex="1" parent="1">
          <mxGeometry x="1820" y="800" width="70" height="70" as="geometry" />
        </mxCell>
        <mxCell id="37Ur7eNhfYniqS4p7nPD-159" value="inibicao_desinibicao" style="sketch=0;points=[[0,0,0],[0.25,0,0],[0.5,0,0],[0.75,0,0],[1,0,0],[0,1,0],[0.25,1,0],[0.5,1,0],[0.75,1,0],[1,1,0],[0,0.25,0],[0,0.5,0],[0,0.75,0],[1,0.25,0],[1,0.5,0],[1,0.75,0]];outlineConnect=0;fontColor=#232F3E;fillColor=#8C4FFF;strokeColor=#ffffff;dashed=0;verticalLabelPosition=bottom;verticalAlign=top;align=center;html=1;fontSize=12;fontStyle=0;aspect=fixed;shape=mxgraph.aws4.resourceIcon;resIcon=mxgraph.aws4.managed_streaming_for_kafka;" vertex="1" parent="1">
          <mxGeometry x="1990" y="800" width="70" height="70" as="geometry" />
        </mxCell>
        <mxCell id="37Ur7eNhfYniqS4p7nPD-160" value="" style="rounded=0;whiteSpace=wrap;html=1;fillColor=#ffe6cc;strokeColor=#d79b00;" vertex="1" parent="1">
          <mxGeometry x="1770" y="950" width="380" height="150" as="geometry" />
        </mxCell>
        <mxCell id="37Ur7eNhfYniqS4p7nPD-161" value="operacao_registrada_desfeita" style="sketch=0;points=[[0,0,0],[0.25,0,0],[0.5,0,0],[0.75,0,0],[1,0,0],[0,1,0],[0.25,1,0],[0.5,1,0],[0.75,1,0],[1,1,0],[0,0.25,0],[0,0.5,0],[0,0.75,0],[1,0.25,0],[1,0.5,0],[1,0.75,0]];outlineConnect=0;fontColor=#232F3E;fillColor=#8C4FFF;strokeColor=#ffffff;dashed=0;verticalLabelPosition=bottom;verticalAlign=top;align=center;html=1;fontSize=12;fontStyle=0;aspect=fixed;shape=mxgraph.aws4.resourceIcon;resIcon=mxgraph.aws4.managed_streaming_for_kafka;" vertex="1" parent="1">
          <mxGeometry x="1920" y="970" width="70" height="70" as="geometry" />
        </mxCell>
        <mxCell id="37Ur7eNhfYniqS4p7nPD-163" value="" style="rounded=0;whiteSpace=wrap;html=1;fillColor=#ffe6cc;strokeColor=#d79b00;" vertex="1" parent="1">
          <mxGeometry x="1770" y="1130" width="380" height="230" as="geometry" />
        </mxCell>
        <mxCell id="37Ur7eNhfYniqS4p7nPD-164" value="abertura_carteira" style="sketch=0;points=[[0,0,0],[0.25,0,0],[0.5,0,0],[0.75,0,0],[1,0,0],[0,1,0],[0.25,1,0],[0.5,1,0],[0.75,1,0],[1,1,0],[0,0.25,0],[0,0.5,0],[0,0.75,0],[1,0.25,0],[1,0.5,0],[1,0.75,0]];outlineConnect=0;fontColor=#232F3E;fillColor=#8C4FFF;strokeColor=#ffffff;dashed=0;verticalLabelPosition=bottom;verticalAlign=top;align=center;html=1;fontSize=12;fontStyle=0;aspect=fixed;shape=mxgraph.aws4.resourceIcon;resIcon=mxgraph.aws4.managed_streaming_for_kafka;" vertex="1" parent="1">
          <mxGeometry x="1790" y="1140" width="70" height="70" as="geometry" />
        </mxCell>
        <mxCell id="37Ur7eNhfYniqS4p7nPD-165" value="recebimento" style="sketch=0;points=[[0,0,0],[0.25,0,0],[0.5,0,0],[0.75,0,0],[1,0,0],[0,1,0],[0.25,1,0],[0.5,1,0],[0.75,1,0],[1,1,0],[0,0.25,0],[0,0.5,0],[0,0.75,0],[1,0.25,0],[1,0.5,0],[1,0.75,0]];outlineConnect=0;fontColor=#232F3E;fillColor=#8C4FFF;strokeColor=#ffffff;dashed=0;verticalLabelPosition=bottom;verticalAlign=top;align=center;html=1;fontSize=12;fontStyle=0;aspect=fixed;shape=mxgraph.aws4.resourceIcon;resIcon=mxgraph.aws4.managed_streaming_for_kafka;" vertex="1" parent="1">
          <mxGeometry x="1890" y="1140" width="70" height="70" as="geometry" />
        </mxCell>
        <mxCell id="37Ur7eNhfYniqS4p7nPD-167" value="cancelamento" style="sketch=0;points=[[0,0,0],[0.25,0,0],[0.5,0,0],[0.75,0,0],[1,0,0],[0,1,0],[0.25,1,0],[0.5,1,0],[0.75,1,0],[1,1,0],[0,0.25,0],[0,0.5,0],[0,0.75,0],[1,0.25,0],[1,0.5,0],[1,0.75,0]];outlineConnect=0;fontColor=#232F3E;fillColor=#8C4FFF;strokeColor=#ffffff;dashed=0;verticalLabelPosition=bottom;verticalAlign=top;align=center;html=1;fontSize=12;fontStyle=0;aspect=fixed;shape=mxgraph.aws4.resourceIcon;resIcon=mxgraph.aws4.managed_streaming_for_kafka;" vertex="1" parent="1">
          <mxGeometry x="2000" y="1140" width="70" height="70" as="geometry" />
        </mxCell>
        <mxCell id="37Ur7eNhfYniqS4p7nPD-168" value="estorno" style="sketch=0;points=[[0,0,0],[0.25,0,0],[0.5,0,0],[0.75,0,0],[1,0,0],[0,1,0],[0.25,1,0],[0.5,1,0],[0.75,1,0],[1,1,0],[0,0.25,0],[0,0.5,0],[0,0.75,0],[1,0.25,0],[1,0.5,0],[1,0.75,0]];outlineConnect=0;fontColor=#232F3E;fillColor=#8C4FFF;strokeColor=#ffffff;dashed=0;verticalLabelPosition=bottom;verticalAlign=top;align=center;html=1;fontSize=12;fontStyle=0;aspect=fixed;shape=mxgraph.aws4.resourceIcon;resIcon=mxgraph.aws4.managed_streaming_for_kafka;" vertex="1" parent="1">
          <mxGeometry x="1890" y="1250" width="70" height="70" as="geometry" />
        </mxCell>
        <mxCell id="37Ur7eNhfYniqS4p7nPD-169" value="repactuacao" style="sketch=0;points=[[0,0,0],[0.25,0,0],[0.5,0,0],[0.75,0,0],[1,0,0],[0,1,0],[0.25,1,0],[0.5,1,0],[0.75,1,0],[1,1,0],[0,0.25,0],[0,0.5,0],[0,0.75,0],[1,0.25,0],[1,0.5,0],[1,0.75,0]];outlineConnect=0;fontColor=#232F3E;fillColor=#8C4FFF;strokeColor=#ffffff;dashed=0;verticalLabelPosition=bottom;verticalAlign=top;align=center;html=1;fontSize=12;fontStyle=0;aspect=fixed;shape=mxgraph.aws4.resourceIcon;resIcon=mxgraph.aws4.managed_streaming_for_kafka;" vertex="1" parent="1">
          <mxGeometry x="1790" y="1250" width="70" height="70" as="geometry" />
        </mxCell>
        <mxCell id="37Ur7eNhfYniqS4p7nPD-171" style="edgeStyle=orthogonalEdgeStyle;rounded=0;orthogonalLoop=1;jettySize=auto;html=1;entryX=1;entryY=0.5;entryDx=0;entryDy=0;entryPerimeter=0;dashed=1;" edge="1" parent="1" source="37Ur7eNhfYniqS4p7nPD-160" target="37Ur7eNhfYniqS4p7nPD-153">
          <mxGeometry relative="1" as="geometry" />
        </mxCell>
        <mxCell id="37Ur7eNhfYniqS4p7nPD-172" style="edgeStyle=orthogonalEdgeStyle;rounded=0;orthogonalLoop=1;jettySize=auto;html=1;entryX=1;entryY=0.5;entryDx=0;entryDy=0;entryPerimeter=0;dashed=1;" edge="1" parent="1" source="37Ur7eNhfYniqS4p7nPD-163" target="37Ur7eNhfYniqS4p7nPD-156">
          <mxGeometry relative="1" as="geometry" />
        </mxCell>
        <mxCell id="37Ur7eNhfYniqS4p7nPD-195" value="&lt;b&gt;7&lt;/b&gt;" style="rounded=0;whiteSpace=wrap;html=1;fillColor=#dae8fc;strokeColor=#6c8ebf;" vertex="1" parent="1">
          <mxGeometry x="890" y="285.5" width="50" height="29" as="geometry" />
        </mxCell>
        <mxCell id="37Ur7eNhfYniqS4p7nPD-197" value="&lt;b&gt;8&lt;/b&gt;" style="rounded=0;whiteSpace=wrap;html=1;fillColor=#dae8fc;strokeColor=#6c8ebf;" vertex="1" parent="1">
          <mxGeometry x="770" y="-350" width="50" height="29" as="geometry" />
        </mxCell>
        <mxCell id="37Ur7eNhfYniqS4p7nPD-198" value="&lt;b&gt;9&lt;/b&gt;" style="rounded=0;whiteSpace=wrap;html=1;fillColor=#dae8fc;strokeColor=#6c8ebf;" vertex="1" parent="1">
          <mxGeometry x="1080" y="-350" width="50" height="29" as="geometry" />
        </mxCell>
        <mxCell id="37Ur7eNhfYniqS4p7nPD-199" value="&lt;b&gt;10&lt;/b&gt;" style="rounded=0;whiteSpace=wrap;html=1;fillColor=#dae8fc;strokeColor=#6c8ebf;" vertex="1" parent="1">
          <mxGeometry x="1440" y="-350" width="50" height="29" as="geometry" />
        </mxCell>
        <mxCell id="37Ur7eNhfYniqS4p7nPD-201" value="&lt;b&gt;12&lt;/b&gt;" style="rounded=0;whiteSpace=wrap;html=1;fillColor=#dae8fc;strokeColor=#6c8ebf;" vertex="1" parent="1">
          <mxGeometry x="2170" y="870" width="50" height="29" as="geometry" />
        </mxCell>
        <mxCell id="37Ur7eNhfYniqS4p7nPD-202" value="&lt;b&gt;13&lt;/b&gt;" style="rounded=0;whiteSpace=wrap;html=1;fillColor=#dae8fc;strokeColor=#6c8ebf;" vertex="1" parent="1">
          <mxGeometry x="2170" y="980" width="50" height="29" as="geometry" />
        </mxCell>
        <mxCell id="37Ur7eNhfYniqS4p7nPD-203" value="&lt;b&gt;14&lt;/b&gt;" style="rounded=0;whiteSpace=wrap;html=1;fillColor=#dae8fc;strokeColor=#6c8ebf;" vertex="1" parent="1">
          <mxGeometry x="2170" y="1160.5" width="50" height="29" as="geometry" />
        </mxCell>
        <mxCell id="37Ur7eNhfYniqS4p7nPD-204" value="&lt;b&gt;15&lt;/b&gt;" style="rounded=0;whiteSpace=wrap;html=1;fillColor=#dae8fc;strokeColor=#6c8ebf;" vertex="1" parent="1">
          <mxGeometry x="370" y="1520" width="50" height="29" as="geometry" />
        </mxCell>
      </root>
    </mxGraphModel>
  </diagram>
</mxfile>
